<mxfile host="app.diagrams.net" modified="2020-12-29T06:51:02.544Z" agent="5.0 (Macintosh; Intel Mac OS X 10_14_6) AppleWebKit/537.36 (KHTML, like Gecko) Chrome/87.0.4280.88 Safari/537.36" etag="JdTLnRh9hs7LXGLVVQbw" version="14.1.3" type="github">
  <diagram id="AaeBaddtuhomEf4IwwFr" name="Page-1">
    <mxGraphModel dx="1151" dy="741" grid="1" gridSize="10" guides="1" tooltips="1" connect="1" arrows="1" fold="1" page="1" pageScale="1" pageWidth="827" pageHeight="1169" math="0" shadow="0">
      <root>
        <mxCell id="0" />
        <mxCell id="1" parent="0" />
        <mxCell id="tUPMlsmaM3yZVUt7uz_e-1" value="流程图" style="text;html=1;strokeColor=none;fillColor=none;align=center;verticalAlign=middle;whiteSpace=wrap;rounded=0;" vertex="1" parent="1">
          <mxGeometry x="40" y="20" width="40" height="20" as="geometry" />
        </mxCell>
        <mxCell id="tUPMlsmaM3yZVUt7uz_e-2" style="edgeStyle=orthogonalEdgeStyle;rounded=0;orthogonalLoop=1;jettySize=auto;html=1;exitX=0.5;exitY=1;exitDx=0;exitDy=0;exitPerimeter=0;entryX=0.5;entryY=0;entryDx=0;entryDy=0;entryPerimeter=0;" edge="1" parent="1" source="tUPMlsmaM3yZVUt7uz_e-3" target="tUPMlsmaM3yZVUt7uz_e-6">
          <mxGeometry relative="1" as="geometry" />
        </mxCell>
        <mxCell id="tUPMlsmaM3yZVUt7uz_e-3" value="开始" style="strokeWidth=2;html=1;shape=mxgraph.flowchart.start_1;whiteSpace=wrap;" vertex="1" parent="1">
          <mxGeometry x="290" y="40" width="100" height="60" as="geometry" />
        </mxCell>
        <mxCell id="tUPMlsmaM3yZVUt7uz_e-4" style="edgeStyle=orthogonalEdgeStyle;rounded=0;orthogonalLoop=1;jettySize=auto;html=1;exitX=0.5;exitY=1;exitDx=0;exitDy=0;exitPerimeter=0;" edge="1" parent="1" source="tUPMlsmaM3yZVUt7uz_e-6">
          <mxGeometry relative="1" as="geometry">
            <mxPoint x="340" y="235" as="targetPoint" />
          </mxGeometry>
        </mxCell>
        <mxCell id="tUPMlsmaM3yZVUt7uz_e-5" style="edgeStyle=orthogonalEdgeStyle;rounded=0;orthogonalLoop=1;jettySize=auto;html=1;exitX=1;exitY=0.5;exitDx=0;exitDy=0;exitPerimeter=0;entryX=1;entryY=0.5;entryDx=0;entryDy=0;entryPerimeter=0;" edge="1" parent="1" source="tUPMlsmaM3yZVUt7uz_e-6" target="tUPMlsmaM3yZVUt7uz_e-13">
          <mxGeometry relative="1" as="geometry">
            <Array as="points">
              <mxPoint x="520" y="170" />
              <mxPoint x="520" y="670" />
            </Array>
          </mxGeometry>
        </mxCell>
        <mxCell id="tUPMlsmaM3yZVUt7uz_e-6" value="手机与水平夹角&lt;br&gt;&amp;gt;20˚且&amp;lt;90˚" style="strokeWidth=2;html=1;shape=mxgraph.flowchart.decision;whiteSpace=wrap;" vertex="1" parent="1">
          <mxGeometry x="277" y="135" width="126" height="70" as="geometry" />
        </mxCell>
        <mxCell id="tUPMlsmaM3yZVUt7uz_e-7" value="N" style="text;html=1;strokeColor=none;fillColor=none;align=center;verticalAlign=middle;whiteSpace=wrap;rounded=0;" vertex="1" parent="1">
          <mxGeometry x="430" y="145" width="40" height="20" as="geometry" />
        </mxCell>
        <mxCell id="tUPMlsmaM3yZVUt7uz_e-8" style="edgeStyle=orthogonalEdgeStyle;rounded=0;orthogonalLoop=1;jettySize=auto;html=1;exitX=1;exitY=0.5;exitDx=0;exitDy=0;" edge="1" parent="1" source="tUPMlsmaM3yZVUt7uz_e-9">
          <mxGeometry relative="1" as="geometry">
            <mxPoint x="520" y="275" as="targetPoint" />
          </mxGeometry>
        </mxCell>
        <mxCell id="tUPMlsmaM3yZVUt7uz_e-16" style="edgeStyle=orthogonalEdgeStyle;rounded=0;orthogonalLoop=1;jettySize=auto;html=1;exitX=0.5;exitY=1;exitDx=0;exitDy=0;entryX=0.5;entryY=0;entryDx=0;entryDy=0;" edge="1" parent="1" source="tUPMlsmaM3yZVUt7uz_e-9" target="tUPMlsmaM3yZVUt7uz_e-14">
          <mxGeometry relative="1" as="geometry" />
        </mxCell>
        <mxCell id="tUPMlsmaM3yZVUt7uz_e-9" value="移速&amp;gt;5km/h" style="rhombus;whiteSpace=wrap;html=1;strokeWidth=2;" vertex="1" parent="1">
          <mxGeometry x="280" y="235" width="120" height="80" as="geometry" />
        </mxCell>
        <mxCell id="tUPMlsmaM3yZVUt7uz_e-10" value="Y" style="text;html=1;strokeColor=none;fillColor=none;align=center;verticalAlign=middle;whiteSpace=wrap;rounded=0;" vertex="1" parent="1">
          <mxGeometry x="298" y="210" width="40" height="20" as="geometry" />
        </mxCell>
        <mxCell id="tUPMlsmaM3yZVUt7uz_e-11" style="edgeStyle=orthogonalEdgeStyle;rounded=0;orthogonalLoop=1;jettySize=auto;html=1;exitX=0.5;exitY=1;exitDx=0;exitDy=0;" edge="1" parent="1" source="tUPMlsmaM3yZVUt7uz_e-9" target="tUPMlsmaM3yZVUt7uz_e-9">
          <mxGeometry relative="1" as="geometry" />
        </mxCell>
        <mxCell id="tUPMlsmaM3yZVUt7uz_e-12" value="N" style="text;html=1;strokeColor=none;fillColor=none;align=center;verticalAlign=middle;whiteSpace=wrap;rounded=0;" vertex="1" parent="1">
          <mxGeometry x="434" y="245" width="40" height="20" as="geometry" />
        </mxCell>
        <mxCell id="tUPMlsmaM3yZVUt7uz_e-13" value="结束" style="strokeWidth=2;html=1;shape=mxgraph.flowchart.terminator;whiteSpace=wrap;" vertex="1" parent="1">
          <mxGeometry x="290" y="640" width="100" height="60" as="geometry" />
        </mxCell>
        <mxCell id="tUPMlsmaM3yZVUt7uz_e-20" style="edgeStyle=orthogonalEdgeStyle;rounded=0;orthogonalLoop=1;jettySize=auto;html=1;exitX=0.5;exitY=1;exitDx=0;exitDy=0;entryX=0.5;entryY=0;entryDx=0;entryDy=0;" edge="1" parent="1" source="tUPMlsmaM3yZVUt7uz_e-14" target="tUPMlsmaM3yZVUt7uz_e-18">
          <mxGeometry relative="1" as="geometry" />
        </mxCell>
        <mxCell id="tUPMlsmaM3yZVUt7uz_e-14" value="上传照片" style="rounded=1;whiteSpace=wrap;html=1;absoluteArcSize=1;arcSize=14;strokeWidth=2;" vertex="1" parent="1">
          <mxGeometry x="280" y="350" width="120" height="40" as="geometry" />
        </mxCell>
        <mxCell id="tUPMlsmaM3yZVUt7uz_e-22" style="edgeStyle=orthogonalEdgeStyle;rounded=0;orthogonalLoop=1;jettySize=auto;html=1;exitX=0.5;exitY=1;exitDx=0;exitDy=0;entryX=0.5;entryY=0;entryDx=0;entryDy=0;entryPerimeter=0;" edge="1" parent="1">
          <mxGeometry relative="1" as="geometry">
            <mxPoint x="339" y="460" as="sourcePoint" />
            <mxPoint x="343" y="480" as="targetPoint" />
          </mxGeometry>
        </mxCell>
        <mxCell id="tUPMlsmaM3yZVUt7uz_e-18" value="人工智能分析照片" style="rounded=1;whiteSpace=wrap;html=1;absoluteArcSize=1;arcSize=14;strokeWidth=2;" vertex="1" parent="1">
          <mxGeometry x="280" y="420" width="120" height="40" as="geometry" />
        </mxCell>
        <mxCell id="tUPMlsmaM3yZVUt7uz_e-19" style="edgeStyle=orthogonalEdgeStyle;rounded=0;orthogonalLoop=1;jettySize=auto;html=1;exitX=0.5;exitY=1;exitDx=0;exitDy=0;" edge="1" parent="1" source="tUPMlsmaM3yZVUt7uz_e-18" target="tUPMlsmaM3yZVUt7uz_e-18">
          <mxGeometry relative="1" as="geometry" />
        </mxCell>
        <mxCell id="tUPMlsmaM3yZVUt7uz_e-24" style="edgeStyle=orthogonalEdgeStyle;rounded=0;orthogonalLoop=1;jettySize=auto;html=1;exitX=1;exitY=0.5;exitDx=0;exitDy=0;exitPerimeter=0;" edge="1" parent="1" source="tUPMlsmaM3yZVUt7uz_e-21">
          <mxGeometry relative="1" as="geometry">
            <mxPoint x="520" y="505" as="targetPoint" />
          </mxGeometry>
        </mxCell>
        <mxCell id="tUPMlsmaM3yZVUt7uz_e-30" style="edgeStyle=orthogonalEdgeStyle;rounded=0;orthogonalLoop=1;jettySize=auto;html=1;exitX=0;exitY=0.5;exitDx=0;exitDy=0;exitPerimeter=0;entryX=1;entryY=0.5;entryDx=0;entryDy=0;entryPerimeter=0;" edge="1" parent="1" source="tUPMlsmaM3yZVUt7uz_e-21" target="tUPMlsmaM3yZVUt7uz_e-27">
          <mxGeometry relative="1" as="geometry" />
        </mxCell>
        <mxCell id="tUPMlsmaM3yZVUt7uz_e-47" style="edgeStyle=orthogonalEdgeStyle;rounded=0;orthogonalLoop=1;jettySize=auto;html=1;exitX=0;exitY=0.5;exitDx=0;exitDy=0;exitPerimeter=0;entryX=1;entryY=0.5;entryDx=0;entryDy=0;" edge="1" parent="1" source="tUPMlsmaM3yZVUt7uz_e-21" target="tUPMlsmaM3yZVUt7uz_e-33">
          <mxGeometry relative="1" as="geometry">
            <Array as="points">
              <mxPoint x="270" y="505" />
              <mxPoint x="270" y="565" />
            </Array>
          </mxGeometry>
        </mxCell>
        <mxCell id="tUPMlsmaM3yZVUt7uz_e-21" value="是否户外" style="strokeWidth=2;html=1;shape=mxgraph.flowchart.decision;whiteSpace=wrap;gradientColor=none;" vertex="1" parent="1">
          <mxGeometry x="290" y="480" width="100" height="50" as="geometry" />
        </mxCell>
        <mxCell id="tUPMlsmaM3yZVUt7uz_e-25" value="N" style="text;html=1;strokeColor=none;fillColor=none;align=center;verticalAlign=middle;whiteSpace=wrap;rounded=0;" vertex="1" parent="1">
          <mxGeometry x="440" y="480" width="40" height="20" as="geometry" />
        </mxCell>
        <mxCell id="tUPMlsmaM3yZVUt7uz_e-34" style="edgeStyle=orthogonalEdgeStyle;rounded=0;orthogonalLoop=1;jettySize=auto;html=1;exitX=0.5;exitY=1;exitDx=0;exitDy=0;exitPerimeter=0;entryX=0.5;entryY=0;entryDx=0;entryDy=0;" edge="1" parent="1" source="tUPMlsmaM3yZVUt7uz_e-27" target="tUPMlsmaM3yZVUt7uz_e-33">
          <mxGeometry relative="1" as="geometry" />
        </mxCell>
        <mxCell id="tUPMlsmaM3yZVUt7uz_e-38" style="edgeStyle=orthogonalEdgeStyle;rounded=0;orthogonalLoop=1;jettySize=auto;html=1;exitX=0;exitY=0.5;exitDx=0;exitDy=0;exitPerimeter=0;entryX=0;entryY=0.5;entryDx=0;entryDy=0;entryPerimeter=0;" edge="1" parent="1" source="tUPMlsmaM3yZVUt7uz_e-27" target="tUPMlsmaM3yZVUt7uz_e-13">
          <mxGeometry relative="1" as="geometry">
            <Array as="points">
              <mxPoint x="40" y="505" />
              <mxPoint x="40" y="670" />
            </Array>
          </mxGeometry>
        </mxCell>
        <mxCell id="tUPMlsmaM3yZVUt7uz_e-43" style="edgeStyle=orthogonalEdgeStyle;rounded=0;orthogonalLoop=1;jettySize=auto;html=1;exitX=0;exitY=0.5;exitDx=0;exitDy=0;exitPerimeter=0;" edge="1" parent="1" source="tUPMlsmaM3yZVUt7uz_e-27" target="tUPMlsmaM3yZVUt7uz_e-32">
          <mxGeometry relative="1" as="geometry" />
        </mxCell>
        <mxCell id="tUPMlsmaM3yZVUt7uz_e-27" value="是否逆行" style="strokeWidth=2;html=1;shape=mxgraph.flowchart.decision;whiteSpace=wrap;gradientColor=none;" vertex="1" parent="1">
          <mxGeometry x="150" y="480" width="100" height="50" as="geometry" />
        </mxCell>
        <mxCell id="tUPMlsmaM3yZVUt7uz_e-31" value="Y" style="text;html=1;strokeColor=none;fillColor=none;align=center;verticalAlign=middle;whiteSpace=wrap;rounded=0;" vertex="1" parent="1">
          <mxGeometry x="250" y="480" width="40" height="20" as="geometry" />
        </mxCell>
        <mxCell id="tUPMlsmaM3yZVUt7uz_e-32" value="保存" style="strokeWidth=2;html=1;shape=mxgraph.flowchart.database;whiteSpace=wrap;gradientColor=none;" vertex="1" parent="1">
          <mxGeometry x="50" y="545" width="60" height="60" as="geometry" />
        </mxCell>
        <mxCell id="tUPMlsmaM3yZVUt7uz_e-39" style="edgeStyle=orthogonalEdgeStyle;rounded=0;orthogonalLoop=1;jettySize=auto;html=1;exitX=0.5;exitY=1;exitDx=0;exitDy=0;" edge="1" parent="1" source="tUPMlsmaM3yZVUt7uz_e-33">
          <mxGeometry relative="1" as="geometry">
            <mxPoint x="200" y="660" as="targetPoint" />
          </mxGeometry>
        </mxCell>
        <mxCell id="tUPMlsmaM3yZVUt7uz_e-41" style="edgeStyle=orthogonalEdgeStyle;rounded=0;orthogonalLoop=1;jettySize=auto;html=1;exitX=0;exitY=0.5;exitDx=0;exitDy=0;" edge="1" parent="1" source="tUPMlsmaM3yZVUt7uz_e-33" target="tUPMlsmaM3yZVUt7uz_e-32">
          <mxGeometry relative="1" as="geometry" />
        </mxCell>
        <mxCell id="tUPMlsmaM3yZVUt7uz_e-33" value="发出警告" style="rounded=1;whiteSpace=wrap;html=1;absoluteArcSize=1;arcSize=14;strokeWidth=2;gradientColor=none;" vertex="1" parent="1">
          <mxGeometry x="140" y="545" width="120" height="40" as="geometry" />
        </mxCell>
        <mxCell id="tUPMlsmaM3yZVUt7uz_e-35" value="Y" style="text;html=1;strokeColor=none;fillColor=none;align=center;verticalAlign=middle;whiteSpace=wrap;rounded=0;" vertex="1" parent="1">
          <mxGeometry x="210" y="525" width="40" height="20" as="geometry" />
        </mxCell>
        <mxCell id="tUPMlsmaM3yZVUt7uz_e-36" value="N" style="text;html=1;strokeColor=none;fillColor=none;align=center;verticalAlign=middle;whiteSpace=wrap;rounded=0;" vertex="1" parent="1">
          <mxGeometry x="110" y="470" width="40" height="20" as="geometry" />
        </mxCell>
        <mxCell id="tUPMlsmaM3yZVUt7uz_e-46" style="edgeStyle=orthogonalEdgeStyle;rounded=0;orthogonalLoop=1;jettySize=auto;html=1;exitX=0.5;exitY=1;exitDx=0;exitDy=0;entryX=0.5;entryY=0;entryDx=0;entryDy=0;entryPerimeter=0;" edge="1" parent="1" source="tUPMlsmaM3yZVUt7uz_e-45" target="tUPMlsmaM3yZVUt7uz_e-21">
          <mxGeometry relative="1" as="geometry">
            <Array as="points">
              <mxPoint x="110" y="470" />
              <mxPoint x="340" y="470" />
            </Array>
          </mxGeometry>
        </mxCell>
        <mxCell id="tUPMlsmaM3yZVUt7uz_e-45" value="操作手机" style="verticalLabelPosition=bottom;verticalAlign=top;html=1;shape=trapezoid;perimeter=trapezoidPerimeter;whiteSpace=wrap;size=0.23;arcSize=10;flipV=1;strokeWidth=2;gradientColor=none;" vertex="1" parent="1">
          <mxGeometry x="60" y="140" width="100" height="60" as="geometry" />
        </mxCell>
      </root>
    </mxGraphModel>
  </diagram>
</mxfile>
